<svg width="509" height="509" viewBox="0 0 509 509" fill="none" xmlns="http://www.w3.org/2000/svg">
<g clip-path="url(#clip0_709_1005)">
<path d="M246.76 648.388C253.661 579.062 267.456 466.429 262.855 466.429C258.254 466.429 251.674 464.094 249.063 457.235C240.809 435.546 237.847 391.295 260.552 363.354C284.833 333.478 325.779 324.427 327.216 326.215C329.519 329.08 359.397 342.305 377.786 327.124C451.462 343.627 457.274 412.748 458.238 420.457C462.835 457.234 430.654 475.626 430.654 475.626L469.731 641.126C451.342 655.837 430.184 659.091 416.392 659.857L428.491 687.742L435.751 704.68L413.972 709.52L375.256 663.544H334.12L326.86 726.517H305.082L300.243 695.001V661.124C300.243 661.124 245.601 660.029 246.76 648.388Z" fill="white"/>
<path d="M261.566 512.11L265.221 468.97" stroke="#283332" stroke-width="4.47671" stroke-linecap="round"/>
<path d="M317.989 252.66C292.245 291.276 315.691 317.021 331.781 319.32L329.483 328.514C344.194 332.192 366.261 340.007 375.455 328.514L363.962 298.632L350.17 248.062L317.989 252.66Z" fill="white"/>
<path d="M329.028 241.367C329.028 241.367 308.297 253.64 306.635 276.517C304.973 299.395 318.493 312 318.493 312C318.493 312 328.159 320.022 338.68 319.329" stroke="#283332" stroke-width="4.02904" stroke-linecap="round"/>
<path d="M331.295 268.131C331.295 268.131 323.966 279.616 323.877 280.611C323.789 281.606 325.586 284.555 325.586 284.555" stroke="#283332" stroke-width="4.02904" stroke-linecap="round"/>
<path d="M339.608 279.607C338.729 279.18 338.363 278.124 338.792 277.248C339.22 276.373 340.28 276.01 341.159 276.437C342.038 276.865 342.404 277.921 341.975 278.796C341.547 279.672 340.487 280.035 339.608 279.607Z" fill="#283332"/>
<path d="M316.843 277.385C315.963 276.958 315.598 275.901 316.026 275.026C316.454 274.151 317.514 273.788 318.393 274.215C319.272 274.643 319.638 275.699 319.21 276.574C318.782 277.45 317.722 277.813 316.843 277.385Z" fill="#283332"/>
<path d="M338.3 292.412C338.3 292.412 333.132 298.33 328.967 294.96" stroke="#283332" stroke-width="4.02904" stroke-linecap="round"/>
<path d="M341.078 229.256C341.078 229.256 366.346 236.977 375.976 237.628L387.516 217.496L338.341 205.699C338.126 220.582 341.078 229.256 341.078 229.256Z" fill="white" stroke="#283332" stroke-width="4.4724"/>
<path fill-rule="evenodd" clip-rule="evenodd" d="M383.673 307.549C367.116 308.273 353.042 293.955 352.238 275.569C351.434 257.183 364.205 241.691 380.761 240.967C397.318 240.243 411.392 254.561 412.196 272.947C413 291.333 400.23 306.825 383.673 307.549Z" fill="#283332"/>
<path fill-rule="evenodd" clip-rule="evenodd" d="M415.77 295.875C402.052 296.475 390.463 286.261 389.885 273.06C389.308 259.86 399.961 248.673 413.68 248.073C427.398 247.473 438.987 257.688 439.565 270.888C440.142 284.088 429.489 295.276 415.77 295.875Z" fill="#283332"/>
<path fill-rule="evenodd" clip-rule="evenodd" d="M442.219 272.475C433.231 272.868 425.661 266.69 425.311 258.675C424.96 250.661 431.962 243.845 440.95 243.452C449.938 243.059 457.509 249.238 457.859 257.252C458.21 265.267 451.207 272.082 442.219 272.475Z" fill="#283332"/>
<path fill-rule="evenodd" clip-rule="evenodd" d="M325.827 260.46C313.528 260.998 303.19 253.026 302.736 242.654C302.283 232.283 311.886 223.439 324.185 222.901C336.484 222.363 346.823 230.335 347.276 240.707C347.73 251.078 338.127 259.922 325.827 260.46Z" fill="#283332"/>
<path fill-rule="evenodd" clip-rule="evenodd" d="M355.257 266.023C342.958 266.56 332.619 258.589 332.166 248.217C331.712 237.845 341.315 229.001 353.615 228.464C365.914 227.926 376.252 235.898 376.706 246.269C377.159 256.641 367.557 265.485 355.257 266.023Z" fill="#283332"/>
<rect width="3.71927" height="11.0201" transform="matrix(-0.233284 0.972409 0.972409 0.233284 353.77 218.674)" fill="#3FD19E"/>
<rect width="3.71927" height="11.0201" transform="matrix(0.972409 0.233284 0.233284 -0.972409 355.645 226.776)" fill="#3FD19E"/>
<path d="M326.143 325.83C306.988 328.129 265 343.3 250.289 385.594C235.578 427.889 244.159 453.786 250.289 459.15C255.958 468.344 306.527 493.629 344.535 415.476" stroke="#283332" stroke-width="4.47671" stroke-linecap="round"/>
<path d="M375.48 328.127C396.149 329.869 441.102 348.508 455.57 409.127C470.038 469.746 423.145 478.77 397.31 477.028" stroke="#283332" stroke-width="4.47671" stroke-linecap="round"/>
<path d="M343.311 407.645L347.908 382.36C347.908 380.061 346.988 376.383 343.311 380.061" stroke="#283332" stroke-width="4.47671" stroke-linecap="round"/>
<path d="M320.322 403.049L341.01 361.674C343.308 360.908 345.607 352.48 347.906 357.076C349.745 360.754 344.075 372.401 343.308 377.764" stroke="#283332" stroke-width="4.47671" stroke-linecap="round"/>
<path d="M351.904 407.645L348.183 382.36C348.183 380.061 348.928 376.383 351.904 380.061" stroke="#283332" stroke-width="4.47671" stroke-linecap="round"/>
<path d="M370.516 403.049L353.771 361.674C351.911 360.908 350.05 352.48 348.19 357.076C346.701 360.754 351.291 372.401 351.911 377.764" stroke="#283332" stroke-width="4.47671" stroke-linecap="round"/>
<path d="M466.09 636.758L430.893 474.011" stroke="#283332" stroke-width="4.47671" stroke-linecap="round"/>
<path d="M390.668 474.82C385.304 471.846 351.666 455.06 346.303 419.364" stroke="#283332" stroke-width="4.47671" stroke-linecap="round"/>
<path d="M328.191 324.946C327.505 323.917 326.115 323.639 325.087 324.325C324.058 325.011 323.78 326.401 324.466 327.429L328.191 324.946ZM359.393 332.726L357.81 331.143L359.393 332.726ZM368.465 404.035C368.58 405.266 369.671 406.17 370.902 406.055C372.133 405.94 373.037 404.848 372.922 403.618L368.465 404.035ZM324.466 327.429C325.286 328.659 326.518 329.619 327.842 330.382C329.186 331.156 330.768 331.808 332.452 332.36C335.819 333.464 339.818 334.241 343.652 334.749C347.497 335.258 351.259 335.507 354.184 335.528C355.64 335.539 356.935 335.494 357.948 335.386C358.45 335.332 358.94 335.258 359.37 335.148C359.669 335.072 360.41 334.874 360.975 334.308L357.81 331.143C358.183 330.77 358.531 330.742 358.262 330.811C358.124 330.846 357.869 330.892 357.474 330.934C356.694 331.017 355.585 331.062 354.217 331.052C351.491 331.032 347.914 330.797 344.24 330.311C340.556 329.823 336.854 329.093 333.847 328.106C332.343 327.613 331.069 327.074 330.077 326.503C329.064 325.92 328.479 325.379 328.191 324.946L324.466 327.429ZM360.975 334.308C360.849 334.435 360.514 334.708 359.969 334.763C359.408 334.82 358.996 334.61 358.802 334.472C358.538 334.284 358.583 334.179 358.813 334.67C359.206 335.507 359.682 337.063 360.205 339.337C361.234 343.811 362.305 350.431 363.342 358.006C365.414 373.128 367.316 391.785 368.465 404.035L372.922 403.618C371.772 391.349 369.862 372.617 367.778 357.399C366.737 349.804 365.644 343.016 364.568 338.334C364.039 336.031 363.478 334.072 362.866 332.769C362.594 332.189 362.146 331.357 361.399 330.826C360.963 330.515 360.312 330.229 359.515 330.31C358.734 330.389 358.166 330.787 357.81 331.143L360.975 334.308ZM405.292 661.186L384.604 470.401L380.153 470.884L400.841 661.669L405.292 661.186Z" fill="#283332"/>
<path d="M337.419 412.708L308.822 401.686C304.991 404.751 295.03 411.8 285.836 415.478" stroke="#283332" stroke-width="4.47671" stroke-linecap="round"/>
<path d="M346.303 419.369L375.493 406.285C377.792 410.116 385.147 418.697 396.18 422.375C407.214 426.053 414.569 423.907 416.868 422.375" stroke="#283332" stroke-width="4.47671" stroke-linecap="round"/>
<path d="M360.12 454.555C360.12 456.193 359.674 457.605 359.036 458.562C358.391 459.529 357.672 459.884 357.089 459.884C356.507 459.884 355.788 459.529 355.142 458.562C354.504 457.605 354.059 456.193 354.059 454.555C354.059 452.916 354.504 451.504 355.142 450.548C355.788 449.58 356.507 449.226 357.089 449.226C357.672 449.226 358.391 449.58 359.036 450.548C359.674 451.504 360.12 452.916 360.12 454.555Z" stroke="#283332" stroke-width="3.1337"/>
<path d="M364.721 505.12C364.721 506.759 364.276 508.171 363.638 509.127C362.993 510.095 362.274 510.449 361.691 510.449C361.108 510.449 360.389 510.095 359.744 509.127C359.106 508.171 358.661 506.759 358.661 505.12C358.661 503.482 359.106 502.07 359.744 501.113C360.389 500.146 361.108 499.791 361.691 499.791C362.274 499.791 362.993 500.146 363.638 501.113C364.276 502.07 364.721 503.482 364.721 505.12Z" stroke="#283332" stroke-width="3.1337"/>
<path d="M132.824 190.552C110.331 230.723 136.459 246.256 151.986 250.693L151.986 261.784C163.078 266.221 185.26 268.438 194.133 261.784L191.68 238.468L200.824 208.866L164.716 177.966L132.824 190.552Z" fill="white"/>
<path d="M142.408 173.524C142.408 173.524 122.849 187.257 122.964 210.01C123.079 232.763 137.42 244.19 137.42 244.19C137.42 244.19 147.595 251.381 157.948 249.886" stroke="#283332" stroke-width="4.02904" stroke-linecap="round"/>
<path d="M146.716 199.822C146.716 199.822 140.351 211.744 140.34 212.735C140.329 213.725 142.333 216.504 142.333 216.504" stroke="#283332" stroke-width="4.02904" stroke-linecap="round"/>
<path d="M155.872 210.53C154.969 210.175 154.527 209.159 154.883 208.26C155.239 207.361 156.259 206.921 157.162 207.276C158.064 207.631 158.507 208.648 158.151 209.546C157.794 210.445 156.774 210.886 155.872 210.53Z" fill="#283332"/>
<path d="M133.192 210.085C132.29 209.729 131.847 208.713 132.203 207.814C132.559 206.915 133.58 206.475 134.482 206.83C135.384 207.185 135.827 208.202 135.471 209.101C135.115 209.999 134.094 210.44 133.192 210.085Z" fill="#283332"/>
<path d="M155.584 223.29C155.584 223.29 150.928 229.54 146.549 226.527" stroke="#283332" stroke-width="4.02904" stroke-linecap="round"/>
<path d="M188.153 231.518C188.153 231.518 199.192 223.887 194.402 218.995C189.613 214.102 186.059 214.834 184.644 217.346C183.228 219.857 179.208 214.629 173.52 200.526C173.52 200.526 158.259 200.118 147.152 186.396C147.152 186.396 134.504 204.038 121.595 205.313C121.595 205.313 111.803 196.405 120.834 186.714C129.864 177.022 131.015 158.152 149.99 157.542C168.964 156.931 182.889 157.857 184.161 161.772C184.161 161.772 212.975 174.621 213.374 191.12C213.568 199.147 216.821 203.127 216.724 208.298C216.621 213.757 210.299 223.289 210.789 232.932C211.742 251.712 190.859 252.77 190.859 252.77" fill="#283332"/>
<path d="M148.715 260.569C148.715 260.569 125.324 267.828 122.098 270.248L134.197 427.534H206.79C213.243 378.332 225.181 279.443 221.309 277.507C217.437 275.572 209.673 270.655 200.8 264L194.691 260.569C172.913 270.248 148.715 260.569 148.715 260.569Z" fill="#3FD19E"/>
<path d="M121.842 648.455C121.842 665.78 125.48 719.819 128.008 743.461H165.756L177.461 450.453L193.439 745.978H233.08C246.563 657.32 269.485 468.776 253.305 423.856C221.282 428.781 150.157 435.677 121.842 423.856C105.662 475.868 115.1 595.26 121.842 648.455Z" fill="#676E81" stroke="#676E81" stroke-width="4.82444"/>
<path d="M58.8624 650.344C76.1305 475.925 76.1306 437.208 76.1306 437.208C76.1306 437.208 36.0697 451.728 32.5742 420.27C25.1163 353.153 89.7856 270.184 134.205 262.985C145.296 261.188 155.984 333.158 155.984 335.578C155.984 576.553 133.037 657.894 133.037 657.894C133.037 657.894 58.1947 657.088 58.8624 650.344Z" fill="white"/>
<path d="M296.198 652.199C302.853 554.595 262.924 390.444 267.361 401.535C271.797 412.627 275.895 448.119 275.895 448.119C312.806 453.924 301.252 345.548 269.579 319.46C249.615 275.095 211.904 270.658 211.904 270.658C211.904 270.658 180.187 326.115 180.187 338.001C180.187 388.756 188.9 410.408 208.733 667.964C209.224 674.351 295.403 663.863 296.198 652.199Z" fill="white"/>
<g clip-path="url(#clip1_709_1005)">
<path d="M231.455 375.331C233.33 375.331 234.848 373.785 234.848 371.876V356.326C234.848 354.417 233.33 352.871 231.455 352.871H207.707C205.833 352.871 204.314 354.417 204.314 356.326V371.876C204.314 373.785 205.833 375.331 207.707 375.331" stroke="#3FD19E" stroke-width="2.68602" stroke-linecap="round" stroke-linejoin="round"/>
<path d="M226.624 352.647V350.115C226.624 348.391 225.113 346.995 223.247 346.995H215.907C214.042 346.995 212.531 348.391 212.531 350.115V352.647" stroke="#3FD19E" stroke-width="2.68602" stroke-linecap="round" stroke-linejoin="round"/>
<path d="M207.246 375.331C213.824 375.599 227.221 373.831 228.183 364.619" stroke="#3FD19E" stroke-width="2.68602" stroke-linecap="round"/>
<path d="M231.941 375.331C225.363 375.599 211.967 373.831 211.004 364.619" stroke="#3FD19E" stroke-width="2.68602" stroke-linecap="round"/>
</g>
<path d="M72.1479 492.486L57.2852 651.923C57.2852 651.923 92.7695 662.93 133.035 657.896" stroke="#283332" stroke-width="4.47671" stroke-linecap="round"/>
<path d="M265.144 399.316C296.199 547.94 296.199 601.178 296.199 649.98C296.199 658.853 248.999 672.996 208.734 667.963" stroke="#283332" stroke-width="4.47671" stroke-linecap="round"/>
<path d="M71.8699 495.815L76.9221 439.244" stroke="#283332" stroke-width="4.47671" stroke-linecap="round"/>
<path d="M131.791 262.986C146.31 258.147 155.989 335.579 155.989 335.579C155.989 335.579 155.989 567.879 133.042 657.895" stroke="#283332" stroke-width="4.47671"/>
<path d="M211.904 270.658C204.162 278.208 176.936 332.769 178.63 348.297C191.94 470.301 200.99 572.334 208.539 667.964" stroke="#283332" stroke-width="4.47671"/>
<path d="M114.276 338.564L110.005 379.138L103.337 428.037C103.001 430.505 104.575 432.83 106.992 433.434L165.122 447.967C167.976 448.68 170.808 446.727 171.155 443.806L182.073 352.1C182.371 349.596 180.713 347.276 178.247 346.748L120.156 334.3C117.319 333.692 114.58 335.678 114.276 338.564Z" fill="#A2A7B3"/>
<path d="M151.141 396.077L136.476 370.486C132.605 372.422 109.857 379.359 98.7661 383.796L95.4863 429.954C107.101 426.082 137.429 405.756 151.141 396.077Z" fill="white"/>
<path d="M179.157 375.555C169.274 391.011 153.437 393.739 151.141 396.076L138.693 374.921C141.627 370.766 149.798 357.871 155.002 355.69C160.207 353.508 160.232 356.599 159.594 358.417C156.023 361.922 153.531 367.9 155.98 369.458C159.041 371.406 183.32 355.3 184.468 358.417C184.935 359.684 182.109 361.833 178.497 364.305C180.755 363.244 182.478 363.033 182.598 364.619C182.743 366.541 180.743 368.78 178.26 370.879C181.119 369.489 182.714 369.993 179.157 375.555Z" fill="white" stroke="#283332" stroke-width="4.47671" stroke-linecap="round" stroke-linejoin="round"/>
<path d="M132.292 265.167C133.495 264.884 134.241 263.679 133.958 262.475C133.675 261.272 132.47 260.526 131.266 260.809L132.292 265.167ZM44.6667 437.212L43.7576 439.258L44.6667 437.212ZM131.266 260.809C89.0526 270.74 59.0119 311.665 43.4898 351.299C35.7041 371.179 31.4695 390.972 31.1993 406.775C31.0643 414.669 31.9161 421.687 33.8944 427.255C35.8715 432.82 39.0671 437.173 43.7576 439.258L45.5758 435.167C42.4019 433.756 39.8505 430.648 38.1128 425.757C36.3764 420.869 35.5457 414.434 35.6753 406.852C35.9344 391.701 40.0179 372.441 47.6583 352.932C62.9885 313.788 92.2326 274.591 132.292 265.167L131.266 260.809ZM43.7576 439.258C55.522 444.486 72.2206 442.011 90.9827 434.67C109.884 427.273 131.442 414.715 153.312 398.92L150.69 395.291C129.003 410.954 107.783 423.288 89.3514 430.501C70.7798 437.768 55.5894 439.617 45.5758 435.167L43.7576 439.258Z" fill="#283332"/>
<path d="M93.0599 354.939C91.4215 363.677 88.2302 378.775 85.1382 388.816M80.9609 398.496C82.2112 397.245 83.6634 393.606 85.1382 388.816M85.1382 388.816C94.2315 386.397 107.634 379.358 136.472 370.485L151.999 399.322" stroke="#283332" stroke-width="4.47671"/>
<path d="M209.688 270.655C292.37 277.31 327.257 448.115 276.237 448.115" stroke="#283332" stroke-width="4.47671" stroke-linecap="round"/>
<path d="M250.021 362.606C258.494 388.223 271.804 412.623 276.24 412.623" stroke="#283332" stroke-width="4.47671"/>
<path d="M194.707 260.569C199.547 260.569 215.777 258.319 211.905 310.587" stroke="#283332" stroke-width="4.47671" stroke-linecap="round"/>
<path d="M151.746 258.142C146.907 258.142 123.077 268.789 126.949 321.057" stroke="#283332" stroke-width="4.47671"/>
<path d="M211.641 311.382C228.579 306.543 233.419 359.778 218.9 354.938" stroke="#283332" stroke-width="4.47671" stroke-linecap="round"/>
<path d="M210.814 311.382C197.124 311.382 194.704 364.617 210.814 354.938" stroke="#283332" stroke-width="4.47671" stroke-linecap="round"/>
<circle cx="126.952" cy="333.153" r="9.86058" stroke="#283332" stroke-width="4.47671"/>
</g>
<defs>
<clipPath id="clip0_709_1005">
<rect width="444.838" height="366.958" fill="white" transform="translate(32 142)"/>
</clipPath>
<clipPath id="clip1_709_1005">
<rect width="37.5799" height="39.9286" fill="white" transform="translate(200.805 341.641)"/>
</clipPath>
</defs>
</svg>
